<?xml version="1.0" standalone="no"?>
<!DOCTYPE svg PUBLIC "-//W3C//DTD SVG 20010904//EN"
 "http://www.w3.org/TR/2001/REC-SVG-20010904/DTD/svg10.dtd">
<svg version="1.0" xmlns="http://www.w3.org/2000/svg"
 width="1198.000000pt" height="1198.000000pt" viewBox="0 0 1198.000000 1198.000000"
 preserveAspectRatio="xMidYMid meet">
<metadata>
Created by potrace 1.14, written by Peter Selinger 2001-2017
</metadata>
<g transform="translate(0.000000,1198.000000) scale(0.100000,-0.100000)"
fill="#000000" stroke="none">
<path d="M5807 11444 c-1 -1 -65 -5 -142 -9 -170 -9 -234 -14 -355 -31 -78
-11 -97 -13 -145 -19 -27 -4 -57 -8 -65 -10 -8 -3 -33 -7 -55 -11 -22 -3 -59
-10 -83 -15 -23 -5 -59 -12 -79 -15 -40 -6 -300 -69 -348 -84 -16 -5 -84 -26
-150 -45 -199 -60 -405 -137 -625 -235 -131 -58 -304 -144 -318 -157 -7 -7
-18 -13 -24 -13 -16 0 -311 -175 -443 -263 -204 -136 -460 -333 -605 -466
l-55 -51 -80 0 c-99 -1 -217 -8 -270 -15 -22 -3 -67 -8 -100 -11 -66 -6 -244
-39 -251 -46 -3 -4 105 -33 161 -44 126 -24 225 -36 302 -38 72 -1 74 -11 6
-30 -172 -47 -433 -146 -518 -196 -16 -10 -57 -32 -90 -50 -89 -48 -239 -150
-335 -227 -91 -72 -290 -267 -355 -347 -108 -132 -280 -396 -273 -416 2 -5 77
16 168 46 91 31 172 57 180 59 120 33 207 55 214 55 5 0 -51 -60 -124 -132
-351 -352 -614 -743 -762 -1133 -45 -119 -100 -297 -114 -370 -2 -11 -8 -42
-14 -70 -17 -82 -20 -98 -26 -145 -3 -25 -8 -56 -11 -70 -9 -43 -13 -494 -5
-525 8 -28 9 -26 16 25 5 30 10 62 11 70 2 8 6 27 10 42 10 48 74 226 107 295
52 110 164 290 174 281 2 -2 -3 -28 -11 -58 -15 -61 -19 -84 -40 -220 -44
-288 -39 -620 15 -920 55 -305 145 -571 285 -836 50 -95 70 -146 90 -230 168
-714 455 -1348 885 -1956 l33 -47 -42 -71 c-23 -39 -56 -87 -73 -105 -16 -19
-27 -35 -23 -35 4 0 32 14 63 32 32 17 77 42 102 54 l45 23 36 -41 36 -40 -35
-82 c-36 -85 -88 -154 -218 -291 -101 -108 -103 -111 -56 -126 117 -39 350 2
575 100 27 12 52 21 56 21 15 0 226 -215 223 -227 -2 -7 3 -10 12 -7 7 3 25
-5 37 -19 13 -13 58 -52 99 -88 41 -35 77 -66 80 -69 57 -61 591 -440 619
-440 6 0 11 -3 11 -7 0 -5 10 -13 23 -19 12 -6 78 -44 147 -83 229 -132 532
-273 785 -365 55 -20 110 -41 122 -46 12 -5 91 -30 175 -55 222 -66 250 -74
278 -79 14 -2 75 -15 135 -29 145 -33 339 -68 455 -82 25 -3 56 -8 70 -10 14
-2 59 -7 100 -11 41 -4 89 -8 105 -10 229 -21 709 -21 917 1 24 2 70 7 103 10
33 3 74 8 90 10 17 3 80 11 140 20 117 16 125 17 250 41 123 24 127 24 170 35
22 5 51 12 64 15 42 9 243 64 311 85 36 11 72 22 80 24 25 6 309 108 345 124
11 5 56 24 100 42 170 69 417 193 635 316 165 94 478 307 626 426 89 72 237
197 271 230 26 25 47 37 57 34 9 -4 13 -1 10 7 -4 11 193 216 215 224 4 1 52
-15 107 -37 169 -67 260 -90 380 -96 76 -4 184 15 184 33 0 8 -39 51 -139 158
-100 106 -119 133 -156 210 -50 104 -50 113 -12 157 l33 38 79 -42 c44 -23 90
-48 102 -55 37 -23 36 -17 -6 39 -21 28 -53 76 -70 105 l-32 54 69 96 c93 132
272 412 272 426 0 3 14 29 31 57 35 60 150 288 204 404 125 270 259 667 343
1017 18 73 41 143 56 166 20 32 85 164 137 277 45 100 135 380 153 475 2 14
11 59 20 100 39 189 50 308 50 550 1 169 -7 315 -18 377 -2 10 -7 38 -10 63
-11 79 -40 222 -52 255 -6 16 -3 15 13 -5 135 -171 254 -446 297 -694 10 -58
16 -36 17 65 1 182 -1 353 -5 384 -6 51 -19 149 -21 165 -2 8 -5 33 -9 56 -4
34 -18 93 -50 225 -34 138 -124 368 -207 534 -159 313 -365 592 -642 869 -127
125 -136 138 -106 131 64 -13 274 -75 409 -120 74 -25 136 -45 138 -45 14 0
-166 287 -223 355 -13 17 -28 35 -32 40 -89 116 -259 283 -403 396 -278 217
-605 377 -937 459 -53 13 -55 25 -5 26 47 0 188 12 227 19 80 14 185 37 225
49 l45 14 -30 7 c-16 4 -38 9 -48 12 -10 2 -30 6 -45 8 -15 2 -40 6 -57 9 -16
3 -57 8 -90 12 -33 3 -69 8 -80 10 -11 2 -94 7 -185 10 -91 4 -170 9 -177 13
-6 3 -29 22 -50 41 -100 91 -177 155 -303 250 -58 44 -110 84 -116 89 -58 47
-465 311 -479 311 -2 0 -30 15 -62 34 -100 58 -282 149 -428 215 -188 84 -159
72 -375 153 -101 38 -400 131 -457 143 -35 7 -43 10 -68 18 -11 3 -31 8 -45
11 -14 3 -34 7 -45 10 -51 12 -113 25 -140 31 -65 13 -303 54 -354 60 -30 4
-61 8 -70 10 -9 1 -50 6 -91 10 -41 3 -86 8 -100 10 -80 12 -661 28 -673 19z"/>
</g>
</svg>
